<svg width="60" height="91" viewBox="0 0 60 91" fill="none" xmlns="http://www.w3.org/2000/svg">
<path d="M36.2857 81.6072C35.2417 81.3192 34.1977 81.0312 33.4777 80.7072C31.7137 80.0952 31.6417 78.7272 32.2537 77.3232C32.5777 76.6032 33.2257 75.8832 33.1897 75.1992C33.0817 73.4712 32.3257 71.8152 30.8857 70.4832C29.8057 69.5112 28.7257 68.8632 27.6457 68.2512C26.2057 67.2792 24.4417 66.7032 23.0377 65.7312C20.9137 64.4712 19.1137 63.1752 17.3137 61.5552C14.3977 58.6032 12.8137 54.8952 12.9577 50.7552C12.7777 47.6592 13.3177 44.5272 14.5057 41.3592C16.2697 35.7432 19.8337 31.7472 24.9097 29.4072C27.9337 27.8592 31.3177 26.6352 34.7377 26.1312C41.5417 24.7272 47.8417 26.4552 52.6297 31.7112C56.6257 35.6352 58.9657 40.6752 59.6137 46.1472C59.7217 48.1992 59.4697 49.9632 58.8937 52.0512C58.2817 53.8152 57.3457 55.5792 56.4097 57.0192C56.0857 57.3792 56.0857 57.3792 55.7617 57.7392C53.8177 59.8992 52.9177 62.7072 52.7377 65.4792C52.7737 66.1632 52.4857 66.8832 52.1617 67.9272C52.1977 68.2872 52.2337 68.9712 52.2337 68.9712C52.9537 69.6192 53.6737 69.9432 54.3937 70.5912C55.1497 71.5992 55.1857 72.6072 54.5737 73.6872C53.9257 74.4072 53.6017 75.1272 52.9537 75.8472C53.3497 76.8552 53.4217 77.8992 52.7737 78.9432C52.4497 79.3032 52.4497 79.6632 52.1617 80.3472C51.8377 80.7072 52.1977 81.0312 52.2337 81.3912C52.9897 82.3992 52.6657 83.0832 52.3777 84.1272C51.4417 86.2512 50.1817 88.0512 47.8057 88.8432C46.1137 89.6352 44.0617 90.0672 42.3697 90.1752C41.6857 90.2112 41.3257 90.2472 40.6417 89.9232C39.5977 89.6352 38.5177 88.6632 38.7697 87.2592C38.7337 86.5752 38.3737 86.2512 37.6537 85.9272C36.6097 85.6392 36.5377 84.5952 36.5017 83.5872C36.3577 82.9752 36.3217 82.2912 36.2857 81.6072ZM36.2137 54.3552C35.8537 54.0312 35.4937 53.7072 35.4577 53.3472C33.6217 51.3672 32.4697 49.3872 32.0017 46.6512C31.9657 46.2912 31.9297 45.6072 31.9297 45.2832C32.2177 44.2392 33.2257 43.4832 34.2697 43.7712C34.6297 43.7352 34.9897 44.0952 35.3497 44.4192C36.0697 45.0672 36.4657 45.7512 36.8257 46.3992C37.9417 48.0552 38.7337 50.0712 39.2017 52.1232C39.2377 52.4832 39.2737 53.1672 39.9577 53.1312C40.6417 53.0952 41.3617 53.3832 42.0097 53.0232C41.9737 52.6632 41.9737 52.6632 41.9737 52.6632C42.1897 50.5752 42.4057 48.1632 42.9817 46.0752C43.2697 45.0312 43.9177 43.9512 45.2497 43.5552C46.2577 43.1592 46.9777 43.4472 47.6977 44.1312C48.0937 44.8152 48.4897 45.8232 48.5257 46.5072C48.5977 47.8752 48.3457 49.2792 48.0577 50.3232C47.4457 52.0872 46.5097 53.8512 44.8537 54.6432C44.1697 55.0392 44.2057 55.3632 44.2057 55.7232C44.2777 57.0912 44.7097 58.7832 44.7817 60.1872C45.2497 62.5632 45.7177 64.9752 46.1857 66.9912C46.2577 68.0352 46.6177 68.6832 46.6897 69.7272C47.6977 69.3312 48.7417 69.2592 49.7497 69.2232C51.4777 69.1152 51.4417 68.4312 51.0097 67.0992C50.9737 66.7392 50.6137 66.4152 50.6137 66.0912C50.5777 65.4072 50.1817 64.7232 50.5057 64.0392C50.6497 60.5832 51.5137 57.4512 53.4577 54.9312C54.1057 54.2112 54.7537 53.1312 55.0417 52.4472C56.9497 49.6032 57.4897 46.4712 56.5897 43.0512C56.1577 41.6832 55.7257 39.9912 54.9697 38.6592C53.0257 34.6272 50.1097 31.3512 46.1857 29.4792C42.9817 27.9312 39.8857 27.7512 36.4657 28.2912C33.7297 28.7952 31.3537 29.5872 29.0137 30.7752C23.2897 33.1512 19.3657 37.1472 17.6017 43.1232C17.0257 45.2112 16.4497 47.6592 16.2697 50.1072C16.1257 53.5632 17.3137 56.5872 19.8697 59.2152C21.7057 61.1952 24.1897 62.4192 26.6737 63.6792C28.4377 64.6152 30.2377 65.5512 32.0017 66.8472C33.8017 68.1432 35.2777 70.1232 36.0697 72.1392C36.1057 72.4992 36.4657 72.8232 36.4657 73.1472C37.4737 72.7512 38.4817 72.3552 39.4897 71.9592C39.7417 70.5552 39.3457 69.2232 38.9137 67.8552C37.7257 65.1552 36.2137 62.4912 34.7017 59.7912C34.3057 59.1072 33.5857 58.1352 32.5417 58.1712C32.1817 58.2072 31.8217 57.8472 31.4977 57.8832C28.6897 56.6592 26.1697 54.7152 24.2977 52.0512C23.9017 51.3672 23.5417 50.7192 23.4697 49.6752C23.3977 48.3072 24.0817 47.9112 25.0897 47.8752C26.1337 47.8032 27.1777 48.0912 28.2217 48.7392C30.3457 49.9992 31.8577 51.9792 33.3337 53.9952C33.7297 54.6792 34.0897 55.0032 34.4497 55.6512C35.2417 55.7952 35.9257 55.4352 36.2137 54.3552ZM38.6977 55.6152C38.0857 57.0192 37.1137 58.0992 35.7817 58.8912C36.1417 59.2152 36.1777 59.5752 36.1777 59.8992C38.4457 63.5712 40.7137 67.2432 41.2897 71.7072C42.2977 71.3112 43.3057 70.9152 44.6737 70.4832C43.3777 65.7312 42.0817 60.9792 41.5057 56.1912C40.4257 55.8672 39.7417 55.5432 38.6977 55.6152ZM52.6297 71.4192C51.9097 70.7712 50.8657 70.4832 50.1817 70.8432C48.4897 71.6352 46.8337 72.3912 45.1417 73.1832C43.1257 74.3352 40.7497 75.1272 38.7697 76.2792C37.4017 76.7112 36.3937 77.1072 34.7017 77.5392C34.7017 77.5392 34.3777 77.8992 34.3777 78.2592C36.1417 79.1952 37.8697 78.7632 39.5617 78.6552C43.9897 77.7192 48.0217 75.7752 51.6577 72.8232C52.3417 72.1392 52.3057 71.7792 52.6297 71.4192ZM50.8657 76.6752C46.9057 79.6632 42.8377 81.2472 38.0137 81.4992C37.7977 83.5872 38.5177 84.2352 40.5337 83.7672C40.5337 83.7672 40.5337 83.7672 40.8937 83.7312C43.2337 82.5792 45.9697 81.7512 48.3097 80.5632C49.6777 80.2032 50.6137 78.7632 50.8657 76.6752ZM40.6777 86.1792C40.7497 87.2232 40.7497 87.5472 41.7937 87.5112C42.8377 87.4392 43.8457 87.4032 45.2137 86.9712C47.5897 86.5032 49.2457 85.0272 50.8657 83.2272C51.1897 82.8672 51.5137 82.1472 51.1177 81.4992C47.8057 83.7312 44.4217 84.9552 40.6777 86.1792ZM30.4177 55.3632C28.9417 53.7072 27.8257 52.0512 25.7017 51.1512C26.4577 52.4832 28.2937 54.4632 30.4177 55.3632ZM45.4657 46.6152C44.4937 47.6952 43.9177 50.1432 44.3137 51.1512C45.2857 49.7472 45.5377 48.3432 45.4657 46.6152Z" fill="#EDAB31"/>
<path d="M40.607 0C41.687 0.972 42.119 2.34 41.831 3.744C41.003 7.596 40.175 11.412 39.347 15.264C39.095 16.668 38.735 16.668 37.367 16.74C36.323 16.452 35.603 15.804 35.891 14.76C36.719 10.908 37.511 6.732 38.339 2.916C38.627 1.512 39.599 0.396 40.607 0Z" fill="#EDAB31"/>
<path d="M15.9265 1.35364C16.9705 1.64164 17.3665 2.32564 17.4025 3.00964C18.5905 5.70964 19.4185 8.40964 20.2465 10.7856C21.0385 12.8016 21.5065 14.8536 22.2985 16.8696C22.3345 17.2296 22.3705 17.9136 22.7305 18.2376C22.3705 18.2736 22.0465 18.6336 21.7225 18.6336C20.7145 19.0296 19.9945 18.7416 19.5985 17.6976C18.3745 13.9536 16.4305 9.92164 15.8545 5.81764C15.7825 4.44964 15.7105 3.40564 15.3145 2.03764C15.6025 2.03764 15.9265 1.67764 15.9265 1.35364Z" fill="#EDAB31"/>
<path d="M54.5897 6.90442C54.6257 7.58842 54.6617 8.27242 54.3377 8.63242C53.7617 10.7204 53.1857 12.8444 51.8897 14.6084C50.9177 15.6884 50.3057 17.0924 49.3337 18.5324C49.0097 18.8924 48.6857 19.2524 48.0017 19.2884C46.6337 19.3604 45.5537 18.3884 46.1657 16.9844C46.1297 16.6244 46.4897 16.6244 46.4897 16.2644C47.7857 14.4644 48.7217 12.7004 49.9817 10.9004C50.9537 9.46042 52.2497 8.38042 53.2217 7.26442C53.9057 7.30042 54.2657 7.30042 54.5897 6.90442Z" fill="#EDAB31"/>
<path d="M14.724 27.1156C14.04 27.1516 13.716 27.5116 13.716 27.5116C12.672 27.2236 11.304 27.2956 10.224 27.0076C7.452 26.4676 4.644 25.5676 1.836 24.7036C1.476 24.7396 1.476 24.7396 1.116 24.3796C0.395999 24.0556 0.036 23.4076 0 22.7236C0.324 22.0036 0.971999 21.2836 1.656 21.6076C4.788 22.4716 7.92 23.0116 11.088 24.1996C12.528 24.8116 13.608 25.7836 14.724 27.1156Z" fill="#EDAB31"/>
</svg>
