<svg width="131" height="49" viewBox="0 0 131 49" fill="none" xmlns="http://www.w3.org/2000/svg" transform="rotate(0) scale(1, 1)"><path d="M48.73 30.488C47.6767 30.488 46.7267 30.3047 45.88 29.938C45.04 29.5713 44.3467 29.048 43.8 28.368C43.26 27.6813 42.9167 26.868 42.77 25.928L45.27 25.548C45.4833 26.4013 45.92 27.0613 46.58 27.528C47.2467 27.9947 48.0133 28.228 48.88 28.228C49.3933 28.228 49.8767 28.148 50.33 27.988C50.7833 27.828 51.15 27.5947 51.43 27.288C51.7167 26.9813 51.86 26.6047 51.86 26.158C51.86 25.958 51.8267 25.7747 51.76 25.608C51.6933 25.4347 51.5933 25.2813 51.46 25.148C51.3333 25.0147 51.1667 24.8947 50.96 24.788C50.76 24.6747 50.5267 24.578 50.26 24.498L46.54 23.398C46.22 23.3047 45.8733 23.1813 45.5 23.028C45.1333 22.868 44.7833 22.6513 44.45 22.378C44.1233 22.098 43.8533 21.7447 43.64 21.318C43.4333 20.8847 43.33 20.3513 43.33 19.718C43.33 18.7913 43.5633 18.0147 44.03 17.388C44.5033 16.7547 45.1367 16.2813 45.93 15.968C46.73 15.6547 47.6167 15.5013 48.59 15.508C49.5767 15.5147 50.4567 15.6847 51.23 16.018C52.0033 16.3447 52.65 16.8213 53.17 17.448C53.69 18.0747 54.0567 18.8313 54.27 19.718L51.68 20.168C51.5733 19.6613 51.3667 19.2313 51.06 18.878C50.76 18.518 50.39 18.2447 49.95 18.058C49.5167 17.8713 49.0533 17.7713 48.56 17.758C48.08 17.7513 47.6333 17.8247 47.22 17.978C46.8133 18.1247 46.4833 18.338 46.23 18.618C45.9833 18.898 45.86 19.2247 45.86 19.598C45.86 19.9513 45.9667 20.2413 46.18 20.468C46.3933 20.688 46.6567 20.8647 46.97 20.998C47.29 21.1247 47.6133 21.2313 47.94 21.318L50.52 22.038C50.8733 22.1313 51.27 22.258 51.71 22.418C52.15 22.578 52.5733 22.8013 52.98 23.088C53.3867 23.3747 53.72 23.7513 53.98 24.218C54.2467 24.6847 54.38 25.278 54.38 25.998C54.38 26.7447 54.2233 27.4013 53.91 27.968C53.6033 28.528 53.1867 28.9947 52.66 29.368C52.1333 29.7413 51.53 30.0213 50.85 30.208C50.1767 30.3947 49.47 30.488 48.73 30.488ZM62.6345 30.488C61.1945 30.488 59.9612 30.1747 58.9345 29.548C57.9079 28.9147 57.1179 28.0347 56.5645 26.908C56.0179 25.7813 55.7445 24.4747 55.7445 22.988C55.7445 21.5013 56.0179 20.1947 56.5645 19.068C57.1179 17.9413 57.9079 17.0647 58.9345 16.438C59.9612 15.8047 61.1945 15.488 62.6345 15.488C64.2945 15.488 65.6779 15.9047 66.7845 16.738C67.8912 17.5647 68.6679 18.6813 69.1145 20.088L66.6845 20.758C66.4045 19.818 65.9279 19.0847 65.2545 18.558C64.5812 18.0247 63.7079 17.758 62.6345 17.758C61.6679 17.758 60.8612 17.9747 60.2145 18.408C59.5745 18.8413 59.0912 19.4513 58.7645 20.238C58.4445 21.018 58.2812 21.9347 58.2745 22.988C58.2745 24.0413 58.4345 24.9613 58.7545 25.748C59.0812 26.528 59.5679 27.1347 60.2145 27.568C60.8612 28.0013 61.6679 28.218 62.6345 28.218C63.7079 28.218 64.5812 27.9513 65.2545 27.418C65.9279 26.8847 66.4045 26.1513 66.6845 25.218L69.1145 25.888C68.6679 27.2947 67.8912 28.4147 66.7845 29.248C65.6779 30.0747 64.2945 30.488 62.6345 30.488ZM71.5102 30.188V15.788H73.9202V30.188H71.5102ZM82.2456 30.488C81.1923 30.488 80.2423 30.3047 79.3956 29.938C78.5556 29.5713 77.8623 29.048 77.3156 28.368C76.7756 27.6813 76.4323 26.868 76.2856 25.928L78.7856 25.548C78.999 26.4013 79.4356 27.0613 80.0956 27.528C80.7623 27.9947 81.529 28.228 82.3956 28.228C82.909 28.228 83.3923 28.148 83.8456 27.988C84.299 27.828 84.6656 27.5947 84.9456 27.288C85.2323 26.9813 85.3756 26.6047 85.3756 26.158C85.3756 25.958 85.3423 25.7747 85.2756 25.608C85.209 25.4347 85.109 25.2813 84.9756 25.148C84.849 25.0147 84.6823 24.8947 84.4756 24.788C84.2756 24.6747 84.0423 24.578 83.7756 24.498L80.0556 23.398C79.7356 23.3047 79.389 23.1813 79.0156 23.028C78.649 22.868 78.299 22.6513 77.9656 22.378C77.639 22.098 77.369 21.7447 77.1556 21.318C76.949 20.8847 76.8456 20.3513 76.8456 19.718C76.8456 18.7913 77.079 18.0147 77.5456 17.388C78.019 16.7547 78.6523 16.2813 79.4456 15.968C80.2456 15.6547 81.1323 15.5013 82.1056 15.508C83.0923 15.5147 83.9723 15.6847 84.7456 16.018C85.519 16.3447 86.1656 16.8213 86.6856 17.448C87.2056 18.0747 87.5723 18.8313 87.7856 19.718L85.1956 20.168C85.089 19.6613 84.8823 19.2313 84.5756 18.878C84.2756 18.518 83.9056 18.2447 83.4656 18.058C83.0323 17.8713 82.569 17.7713 82.0756 17.758C81.5956 17.7513 81.149 17.8247 80.7356 17.978C80.329 18.1247 79.999 18.338 79.7456 18.618C79.499 18.898 79.3756 19.2247 79.3756 19.598C79.3756 19.9513 79.4823 20.2413 79.6956 20.468C79.909 20.688 80.1723 20.8647 80.4856 20.998C80.8056 21.1247 81.129 21.2313 81.4556 21.318L84.0356 22.038C84.389 22.1313 84.7856 22.258 85.2256 22.418C85.6656 22.578 86.089 22.8013 86.4956 23.088C86.9023 23.3747 87.2356 23.7513 87.4956 24.218C87.7623 24.6847 87.8956 25.278 87.8956 25.998C87.8956 26.7447 87.739 27.4013 87.4256 27.968C87.119 28.528 86.7023 28.9947 86.1756 29.368C85.649 29.7413 85.0456 30.0213 84.3656 30.208C83.6923 30.3947 82.9856 30.488 82.2456 30.488ZM95.6831 30.488C94.6298 30.488 93.6798 30.3047 92.8331 29.938C91.9931 29.5713 91.2998 29.048 90.7531 28.368C90.2131 27.6813 89.8698 26.868 89.7231 25.928L92.2231 25.548C92.4365 26.4013 92.8731 27.0613 93.5331 27.528C94.1998 27.9947 94.9665 28.228 95.8331 28.228C96.3465 28.228 96.8298 28.148 97.2831 27.988C97.7365 27.828 98.1031 27.5947 98.3831 27.288C98.6698 26.9813 98.8131 26.6047 98.8131 26.158C98.8131 25.958 98.7798 25.7747 98.7131 25.608C98.6465 25.4347 98.5465 25.2813 98.4131 25.148C98.2865 25.0147 98.1198 24.8947 97.9131 24.788C97.7131 24.6747 97.4798 24.578 97.2131 24.498L93.4931 23.398C93.1731 23.3047 92.8265 23.1813 92.4531 23.028C92.0865 22.868 91.7365 22.6513 91.4031 22.378C91.0765 22.098 90.8065 21.7447 90.5931 21.318C90.3865 20.8847 90.2831 20.3513 90.2831 19.718C90.2831 18.7913 90.5165 18.0147 90.9831 17.388C91.4565 16.7547 92.0898 16.2813 92.8831 15.968C93.6831 15.6547 94.5698 15.5013 95.5431 15.508C96.5298 15.5147 97.4098 15.6847 98.1831 16.018C98.9565 16.3447 99.6031 16.8213 100.123 17.448C100.643 18.0747 101.01 18.8313 101.223 19.718L98.6331 20.168C98.5265 19.6613 98.3198 19.2313 98.0131 18.878C97.7131 18.518 97.3431 18.2447 96.9031 18.058C96.4698 17.8713 96.0065 17.7713 95.5131 17.758C95.0331 17.7513 94.5865 17.8247 94.1731 17.978C93.7665 18.1247 93.4365 18.338 93.1831 18.618C92.9365 18.898 92.8131 19.2247 92.8131 19.598C92.8131 19.9513 92.9198 20.2413 93.1331 20.468C93.3465 20.688 93.6098 20.8647 93.9231 20.998C94.2431 21.1247 94.5665 21.2313 94.8931 21.318L97.4731 22.038C97.8265 22.1313 98.2231 22.258 98.6631 22.418C99.1031 22.578 99.5265 22.8013 99.9331 23.088C100.34 23.3747 100.673 23.7513 100.933 24.218C101.2 24.6847 101.333 25.278 101.333 25.998C101.333 26.7447 101.176 27.4013 100.863 27.968C100.556 28.528 100.14 28.9947 99.6131 29.368C99.0865 29.7413 98.4831 30.0213 97.8031 30.208C97.1298 30.3947 96.4231 30.488 95.6831 30.488ZM109.588 30.488C108.148 30.488 106.914 30.1747 105.888 29.548C104.861 28.9147 104.071 28.0347 103.518 26.908C102.971 25.7813 102.698 24.4747 102.698 22.988C102.698 21.5013 102.971 20.1947 103.518 19.068C104.071 17.9413 104.861 17.0647 105.888 16.438C106.914 15.8047 108.148 15.488 109.588 15.488C111.028 15.488 112.261 15.8047 113.288 16.438C114.321 17.0647 115.111 17.9413 115.658 19.068C116.211 20.1947 116.488 21.5013 116.488 22.988C116.488 24.4747 116.211 25.7813 115.658 26.908C115.111 28.0347 114.321 28.9147 113.288 29.548C112.261 30.1747 111.028 30.488 109.588 30.488ZM109.588 28.218C110.554 28.2247 111.358 28.0113 111.998 27.578C112.644 27.1447 113.128 26.5347 113.448 25.748C113.774 24.9613 113.938 24.0413 113.938 22.988C113.938 21.9347 113.774 21.0213 113.448 20.248C113.128 19.468 112.644 18.8613 111.998 18.428C111.358 17.9947 110.554 17.7713 109.588 17.758C108.621 17.7513 107.818 17.9647 107.178 18.398C106.538 18.8313 106.054 19.4413 105.728 20.228C105.408 21.0147 105.248 21.9347 105.248 22.988C105.248 24.0413 105.408 24.958 105.728 25.738C106.048 26.5113 106.528 27.1147 107.168 27.548C107.814 27.9813 108.621 28.2047 109.588 28.218ZM118.478 30.188V15.788H124.428C124.568 15.788 124.748 15.7947 124.968 15.808C125.188 15.8147 125.391 15.8347 125.578 15.868C126.411 15.9947 127.098 16.2713 127.638 16.698C128.185 17.1247 128.588 17.6647 128.848 18.318C129.115 18.9647 129.248 19.6847 129.248 20.478C129.248 21.6513 128.951 22.6613 128.358 23.508C127.765 24.348 126.855 24.868 125.628 25.068L124.598 25.158L120.888 25.158V30.188H118.478ZM126.748 30.188L123.908 24.328L126.358 23.788L129.478 30.188H126.748ZM120.888 22.908H124.328C124.461 22.908 124.611 22.9013 124.778 22.888C124.945 22.8747 125.098 22.848 125.238 22.808C125.638 22.708 125.951 22.5313 126.178 22.278C126.411 22.0247 126.575 21.738 126.668 21.418C126.768 21.098 126.818 20.7847 126.818 20.478C126.818 20.1713 126.768 19.858 126.668 19.538C126.575 19.2113 126.411 18.9213 126.178 18.668C125.951 18.4147 125.638 18.238 125.238 18.138C125.098 18.098 124.945 18.0747 124.778 18.068C124.611 18.0547 124.461 18.048 124.328 18.048H120.888V22.908Z" fill="#ffffffed" ></path><path d="M31.3501 31.6585C30.2501 31.6585 29.2601 31.8785 28.4901 32.4285L25.1901 28.5785L32.8901 20.8785C35.5301 18.1285 36.0801 13.9485 34.1001 10.7585L22.0001 24.8385L9.9001 10.7585C7.9201 13.9485 8.4701 18.1285 11.1101 20.7685L18.8101 28.4685L15.5101 32.3185C14.7401 31.8785 13.7501 31.6585 12.6501 31.6585C9.3501 31.6585 6.6001 34.4085 6.6001 37.7085C6.6001 41.0085 9.3501 43.7585 12.6501 43.7585C15.9501 43.7585 18.7001 41.0085 18.7001 37.7085C18.7001 36.9385 18.5901 36.1685 18.2601 35.3985L22.0001 31.6585L25.7401 35.3985C25.4101 36.0585 25.3001 36.8285 25.3001 37.7085C25.3001 41.0085 28.0501 43.7585 31.3501 43.7585C34.6501 43.7585 37.4001 41.0085 37.4001 37.7085C37.4001 34.4085 34.6501 31.6585 31.3501 31.6585ZM12.6501 41.5585C10.5601 41.5585 8.8001 39.7985 8.8001 37.7085C8.8001 35.6185 10.5601 33.8585 12.6501 33.8585C14.7401 33.8585 16.5001 35.6185 16.5001 37.7085C16.5001 39.7985 14.7401 41.5585 12.6501 41.5585ZM31.3501 41.5585C29.2601 41.5585 27.5001 39.7985 27.5001 37.7085C27.5001 35.6185 29.2601 33.8585 31.3501 33.8585C33.4401 33.8585 35.2001 35.6185 35.2001 37.7085C35.2001 39.7985 33.4401 41.5585 31.3501 41.5585Z" fill="#ffffffed" ></path><path d="M18.3635 14.7342L18.3635 9.38366C18.3635 9.15848 18.4078 8.93549 18.4939 8.72745C18.5801 8.5194 18.7064 8.33036 18.8656 8.17113C19.0248 8.0119 19.2139 7.88561 19.4219 7.79945C19.63 7.7133 19.853 7.66898 20.0781 7.66903L23.922 7.66903C24.1472 7.66898 24.3701 7.7133 24.5782 7.79945C24.7862 7.88561 24.9753 8.0119 25.1345 8.17113C25.2937 8.33036 25.42 8.5194 25.5062 8.72745C25.5923 8.9355 25.6367 9.15848 25.6366 9.38366L25.6366 14.7342" stroke="#ffffffed" stroke-width="2.05714" stroke-miterlimit="10" stroke-linecap="square" ></path><path d="M25.6366 19.5829L25.6366 24.9335C25.6367 25.1587 25.5923 25.3816 25.5062 25.5897C25.42 25.7977 25.2937 25.9868 25.1345 26.146C24.9753 26.3052 24.7862 26.4315 24.5782 26.5177C24.3701 26.6038 24.1472 26.6482 23.922 26.6481L20.0781 26.6481C19.853 26.6482 19.63 26.6038 19.4219 26.5177C19.2139 26.4315 19.0248 26.3052 18.8656 26.146C18.7064 25.9868 18.5801 25.7977 18.4939 25.5897C18.4078 25.3816 18.3635 25.1587 18.3635 24.9335L18.3635 19.5829" stroke="#ffffffed" stroke-width="2.05714" stroke-miterlimit="10" stroke-linecap="square" ></path><path d="M22.0001 20.7951V13.522" stroke="#ffffffed" stroke-width="2.05714" stroke-miterlimit="10" stroke-linecap="square" ></path></svg>