<svg width="120" height="121" viewBox="0 0 120 121" fill="none" xmlns="http://www.w3.org/2000/svg">
<g filter="url(#filter0_dd_203_55)">
<rect x="2" y="2.18799" width="116" height="116" rx="58" fill="#E5696D"/>
<path d="M51.9232 70.0597C51.5682 70.0596 51.2213 69.9543 50.9262 69.7571C50.6311 69.5598 50.4011 69.2795 50.2653 68.9516C50.1294 68.6237 50.0939 68.2629 50.1631 67.9147C50.2324 67.5666 50.4032 67.2468 50.6542 66.9958L66.808 50.842C67.1465 50.515 67.5999 50.3341 68.0705 50.3382C68.5411 50.3423 68.9913 50.5311 69.3241 50.8638C69.6569 51.1966 69.8457 51.6468 69.8497 52.1174C69.8538 52.588 69.6729 53.0414 69.346 53.3799L53.1921 69.5338C53.0258 69.7009 52.828 69.8333 52.6102 69.9236C52.3924 70.0139 52.1589 70.0601 51.9232 70.0597Z" fill="white"/>
<path d="M70.5252 65.5725C69.6999 65.5749 68.8823 65.4135 68.1197 65.0977C67.3572 64.7819 66.6649 64.318 66.0829 63.7328L63.807 61.456L66.3467 58.9181L68.6217 61.1958C69.1266 61.7005 69.8113 61.984 70.5252 61.984C71.2391 61.984 71.9238 61.7005 72.4286 61.1958L82.5454 51.0781C82.7955 50.8281 82.9939 50.5312 83.1292 50.2046C83.2645 49.8779 83.3342 49.5278 83.3342 49.1742C83.3342 48.8206 83.2645 48.4704 83.1292 48.1437C82.9939 47.8171 82.7955 47.5203 82.5454 47.2702L72.9178 37.6425C72.6677 37.3925 72.3709 37.1941 72.0443 37.0588C71.7176 36.9235 71.3674 36.8538 71.0138 36.8538C70.6602 36.8538 70.3101 36.9235 69.9834 37.0588C69.6568 37.1941 69.3599 37.3925 69.1099 37.6425L58.9931 47.7593C58.7431 48.0094 58.5447 48.3062 58.4094 48.6328C58.2741 48.9595 58.2044 49.3097 58.2044 49.6633C58.2044 50.0169 58.2741 50.367 58.4094 50.6937C58.5447 51.0203 58.7431 51.3172 58.9931 51.5672L61.2699 53.8413L58.732 56.381L56.4552 54.106C55.8718 53.5227 55.409 52.8301 55.0932 52.0679C54.7775 51.3057 54.615 50.4887 54.615 49.6637C54.615 48.8387 54.7775 48.0217 55.0932 47.2595C55.409 46.4973 55.8718 45.8047 56.4552 45.2214L66.572 35.1046C67.1553 34.5212 67.8479 34.0584 68.6101 33.7427C69.3723 33.4269 70.1893 33.2644 71.0143 33.2644C71.8393 33.2644 72.6563 33.4269 73.4185 33.7427C74.1807 34.0584 74.8732 34.5212 75.4566 35.1046L85.0834 44.7323C85.6668 45.3156 86.1296 46.0082 86.4453 46.7704C86.7611 47.5326 86.9236 48.3496 86.9236 49.1746C86.9236 49.9996 86.7611 50.8166 86.4453 51.5788C86.1296 52.341 85.6668 53.0336 85.0834 53.6169L74.9666 63.7328C74.3847 64.3179 73.6925 64.7817 72.9302 65.0975C72.1678 65.4133 71.3504 65.5747 70.5252 65.5725Z" fill="white"/>
<path d="M48.9866 87.1111C48.1613 87.1134 47.3437 86.952 46.5812 86.6362C45.8186 86.3204 45.1263 85.8565 44.5443 85.2714L34.9166 75.6437C34.3332 75.0603 33.8704 74.3678 33.5547 73.6056C33.2389 72.8434 33.0764 72.0264 33.0764 71.2014C33.0764 70.3764 33.2389 69.5594 33.5547 68.7972C33.8704 68.035 34.3332 67.3424 34.9166 66.7591L45.0334 56.6432C45.6168 56.0598 46.3093 55.597 47.0715 55.2812C47.8337 54.9655 48.6507 54.803 49.4757 54.803C50.3007 54.803 51.1177 54.9655 51.8799 55.2812C52.6421 55.597 53.3347 56.0598 53.918 56.6432L56.1939 58.92L53.6542 61.4579L51.3792 59.1802C50.8743 58.6755 50.1896 58.392 49.4757 58.392C48.7618 58.392 48.0771 58.6755 47.5723 59.1802L37.4546 69.2979C37.2045 69.5479 37.0062 69.8447 36.8708 70.1714C36.7355 70.4981 36.6658 70.8482 36.6658 71.2018C36.6658 71.5554 36.7355 71.9056 36.8708 72.2322C37.0062 72.5589 37.2045 72.8557 37.4546 73.1057L47.0823 82.7334C47.3323 82.9835 47.6291 83.1818 47.9558 83.3172C48.2824 83.4525 48.6326 83.5222 48.9862 83.5222C49.3398 83.5222 49.6899 83.4525 50.0166 83.3172C50.3432 83.1818 50.6401 82.9835 50.8901 82.7334L61.0069 72.6166C61.2569 72.3666 61.4553 72.0698 61.5906 71.7431C61.7259 71.4165 61.7956 71.0663 61.7956 70.7127C61.7956 70.3591 61.7259 70.009 61.5906 69.6823C61.4553 69.3556 61.2569 69.0588 61.0069 68.8088L58.7301 66.5347L61.268 63.995L63.5448 66.27C64.1282 66.8533 64.591 67.5459 64.9068 68.3081C65.2225 69.0703 65.385 69.8873 65.385 70.7123C65.385 71.5373 65.2225 72.3542 64.9068 73.1165C64.591 73.8787 64.1282 74.5712 63.5448 75.1546L53.428 85.2714C52.8461 85.8564 52.1539 86.3203 51.3916 86.6361C50.6292 86.9519 49.8118 87.1133 48.9866 87.1111Z" fill="white"/>
</g>
<defs>
<filter id="filter0_dd_203_55" x="0" y="0.187988" width="120" height="120" filterUnits="userSpaceOnUse" color-interpolation-filters="sRGB">
<feFlood flood-opacity="0" result="BackgroundImageFix"/>
<feColorMatrix in="SourceAlpha" type="matrix" values="0 0 0 0 0 0 0 0 0 0 0 0 0 0 0 0 0 0 127 0" result="hardAlpha"/>
<feOffset/>
<feGaussianBlur stdDeviation="0.5"/>
<feColorMatrix type="matrix" values="0 0 0 0 0.0901961 0 0 0 0 0.101961 0 0 0 0 0.121569 0 0 0 0.27 0"/>
<feBlend mode="normal" in2="BackgroundImageFix" result="effect1_dropShadow_203_55"/>
<feColorMatrix in="SourceAlpha" type="matrix" values="0 0 0 0 0 0 0 0 0 0 0 0 0 0 0 0 0 0 127 0" result="hardAlpha"/>
<feOffset/>
<feGaussianBlur stdDeviation="1"/>
<feColorMatrix type="matrix" values="0 0 0 0 0.0901961 0 0 0 0 0.101961 0 0 0 0 0.121569 0 0 0 0.32 0"/>
<feBlend mode="normal" in2="effect1_dropShadow_203_55" result="effect2_dropShadow_203_55"/>
<feBlend mode="normal" in="SourceGraphic" in2="effect2_dropShadow_203_55" result="shape"/>
</filter>
</defs>
</svg>
