<svg width="120" height="121" viewBox="0 0 120 121" fill="none" xmlns="http://www.w3.org/2000/svg">
<g filter="url(#filter0_dd_203_52)">
<rect x="2" y="2.18799" width="116" height="116" rx="58" fill="#F2C263"/>
<path d="M53.4375 36.1255L40.3125 36.1255C39.1522 36.1255 38.0394 36.5864 37.2189 37.4069C36.3984 38.2274 35.9375 39.3402 35.9375 40.5005L35.9375 53.6255C35.9375 54.7858 36.3984 55.8986 37.2189 56.7191C38.0394 57.5396 39.1522 58.0005 40.3125 58.0005H53.4375C54.5978 58.0005 55.7106 57.5396 56.5311 56.7191C57.3516 55.8986 57.8125 54.7858 57.8125 53.6255V40.5005C57.8125 39.3402 57.3516 38.2274 56.5311 37.4069C55.7106 36.5864 54.5978 36.1255 53.4375 36.1255ZM53.4375 53.6255H40.3125L40.3125 40.5005L53.4375 40.5005V53.6255ZM53.4375 62.3755H40.3125C39.1522 62.3755 38.0394 62.8364 37.2189 63.6569C36.3984 64.4774 35.9375 65.5902 35.9375 66.7505L35.9375 79.8755C35.9375 81.0358 36.3984 82.1486 37.2189 82.9691C38.0394 83.7896 39.1522 84.2505 40.3125 84.2505H53.4375C54.5978 84.2505 55.7106 83.7896 56.5311 82.9691C57.3516 82.1486 57.8125 81.0358 57.8125 79.8755L57.8125 66.7505C57.8125 65.5902 57.3516 64.4774 56.5311 63.6569C55.7106 62.8364 54.5978 62.3755 53.4375 62.3755ZM53.4375 79.8755H40.3125L40.3125 66.7505H53.4375L53.4375 79.8755ZM79.6875 36.1255L66.5625 36.1255C65.4022 36.1255 64.2894 36.5864 63.4689 37.4069C62.6484 38.2274 62.1875 39.3402 62.1875 40.5005V53.6255C62.1875 54.7858 62.6484 55.8986 63.4689 56.7191C64.2894 57.5396 65.4022 58.0005 66.5625 58.0005L79.6875 58.0005C80.8478 58.0005 81.9606 57.5396 82.7811 56.7191C83.6016 55.8986 84.0625 54.7858 84.0625 53.6255V40.5005C84.0625 39.3402 83.6016 38.2274 82.7811 37.4069C81.9606 36.5864 80.8478 36.1255 79.6875 36.1255ZM79.6875 53.6255L66.5625 53.6255V40.5005L79.6875 40.5005V53.6255ZM62.1875 73.313L62.1875 64.563C62.1875 63.9828 62.418 63.4264 62.8282 63.0162C63.2384 62.606 63.7948 62.3755 64.375 62.3755C64.9552 62.3755 65.5116 62.606 65.9218 63.0162C66.332 63.4264 66.5625 63.9828 66.5625 64.563L66.5625 73.313C66.5625 73.8932 66.332 74.4496 65.9218 74.8598C65.5116 75.27 64.9552 75.5005 64.375 75.5005C63.7948 75.5005 63.2384 75.27 62.8282 74.8598C62.418 74.4496 62.1875 73.8932 62.1875 73.313ZM84.0625 68.938C84.0625 69.5182 83.832 70.0746 83.4218 70.4848C83.0116 70.895 82.4552 71.1255 81.875 71.1255L75.3125 71.1255L75.3125 82.063C75.3125 82.6432 75.082 83.1996 74.6718 83.6098C74.2616 84.02 73.7052 84.2505 73.125 84.2505H64.375C63.7948 84.2505 63.2384 84.02 62.8282 83.6098C62.418 83.1996 62.1875 82.6432 62.1875 82.063C62.1875 81.4828 62.418 80.9264 62.8282 80.5162C63.2384 80.106 63.7948 79.8755 64.375 79.8755H70.9375L70.9375 64.563C70.9375 63.9828 71.168 63.4264 71.5782 63.0162C71.9884 62.606 72.5448 62.3755 73.125 62.3755C73.7052 62.3755 74.2616 62.606 74.6718 63.0162C75.082 63.4264 75.3125 63.9828 75.3125 64.563V66.7505H81.875C82.4552 66.7505 83.0116 66.981 83.4218 67.3912C83.832 67.8014 84.0625 68.3578 84.0625 68.938ZM84.0625 77.688L84.0625 82.063C84.0625 82.6432 83.832 83.1996 83.4218 83.6098C83.0116 84.02 82.4552 84.2505 81.875 84.2505C81.2948 84.2505 80.7384 84.02 80.3282 83.6098C79.918 83.1996 79.6875 82.6432 79.6875 82.063L79.6875 77.688C79.6875 77.1078 79.918 76.5514 80.3282 76.1412C80.7384 75.731 81.2948 75.5005 81.875 75.5005C82.4552 75.5005 83.0116 75.731 83.4218 76.1412C83.832 76.5514 84.0625 77.1078 84.0625 77.688Z" fill="white"/>
</g>
<defs>
<filter id="filter0_dd_203_52" x="0" y="0.187988" width="120" height="120" filterUnits="userSpaceOnUse" color-interpolation-filters="sRGB">
<feFlood flood-opacity="0" result="BackgroundImageFix"/>
<feColorMatrix in="SourceAlpha" type="matrix" values="0 0 0 0 0 0 0 0 0 0 0 0 0 0 0 0 0 0 127 0" result="hardAlpha"/>
<feOffset/>
<feGaussianBlur stdDeviation="0.5"/>
<feColorMatrix type="matrix" values="0 0 0 0 0.0901961 0 0 0 0 0.101961 0 0 0 0 0.121569 0 0 0 0.27 0"/>
<feBlend mode="normal" in2="BackgroundImageFix" result="effect1_dropShadow_203_52"/>
<feColorMatrix in="SourceAlpha" type="matrix" values="0 0 0 0 0 0 0 0 0 0 0 0 0 0 0 0 0 0 127 0" result="hardAlpha"/>
<feOffset/>
<feGaussianBlur stdDeviation="1"/>
<feColorMatrix type="matrix" values="0 0 0 0 0.0901961 0 0 0 0 0.101961 0 0 0 0 0.121569 0 0 0 0.32 0"/>
<feBlend mode="normal" in2="effect1_dropShadow_203_52" result="effect2_dropShadow_203_52"/>
<feBlend mode="normal" in="SourceGraphic" in2="effect2_dropShadow_203_52" result="shape"/>
</filter>
</defs>
</svg>
